<svg width="40" height="40" viewBox="0 0 40 40" xmlns="http://www.w3.org/2000/svg"><title>RNF-Renfe</title><g fill="none" fill-rule="evenodd"><path d="M0 20C0 8.954 8.954 0 20 0s20 8.954 20 20-8.954 20-20 20S0 31.046 0 20" fill="#850C6F"/><path d="M10.864 18.934c.283-.68.7-1.108 1.48-1.29.346-.08.64-.078 1.053.01.613.133.8.855.532 1.417-.302.63-.703.77-1.228.878-.57.12-1.32.137-2.146.08.058-.35.203-.84.308-1.094m.447 3.183c-1.06-.178-.862-1.46-.862-1.46.943.113 2.13.087 2.943.005.703-.07 2.09-.245 2.486-1.338.39-1.083.094-1.96-1.2-2.203-.952-.177-1.837-.186-2.992-.03-1.65.223-2.557.788-2.96 1.78-.223.545-.357 1.194-.414 1.783-.106 1.073.094 2.056 1.42 2.163 1.78.145 3.182.113 4.666-.122l.463-.667c-1.41.24-3.013.18-3.55.09zm11.682-5.033h-5.378c-.284 1.612-.753 4.366-.987 5.714h2.286c.173-1.014.653-3.792.864-5.008h1.716c.72 0 1.238.492 1.117 1.332l-.635 3.676h2.284c.162-.946.478-2.778.628-3.64.204-1.172-.408-2.074-1.896-2.074zm10.756 5.033c-1.06-.178-.863-1.46-.863-1.46.943.113 2.13.087 2.943.005.703-.07 2.09-.245 2.485-1.338.39-1.083.095-1.96-1.2-2.203-.952-.177-1.837-.186-2.993-.03-1.65.223-2.556.788-2.96 1.78-.222.545-.356 1.194-.413 1.783-.106 1.073.094 2.056 1.42 2.163 1.78.145 3.182.113 4.667-.122l.462-.667c-1.41.24-3.012.18-3.548.09zm-.446-3.183c.282-.68.7-1.108 1.48-1.29.345-.08.64-.078 1.052.01.613.133.8.855.532 1.417-.3.63-.702.77-1.227.878-.57.12-1.32.137-2.147.08.057-.35.203-.84.31-1.094zm-28.886.055c.12-.698.366-1.102 1.117-1.24.67-.124 1.913-.042 2.643.04l.49-.707c-1.106-.08-2.972-.172-4.077-.01-1.58.23-2.22.555-2.4 1.575l-.717 4.15h2.285l.658-3.81zm24.668-5.408c-1.3.92-1.74 2.05-1.98 3.436l-.967 5.597c-.22 1.275-.314 1.94-.528 2.563-.175.526-.74 1.295-1.68 1.307l-.412.593c1.216.06 2.187-.295 2.873-.78 1.3-.92 1.78-2.233 2.02-3.618l.64-3.706c.15-.825.575-1.277 1.477-1.288l.418-.603h-1.57c.223-1.283.305-1.84.486-2.373.18-.524.74-1.294 1.68-1.307l.417-.6c-1.216-.06-2.187.295-2.873.78z" fill="#FFF"/></g></svg>